<?xml version="1.0" ?><!DOCTYPE svg  PUBLIC '-//W3C//DTD SVG 1.1//EN'  'http://www.w3.org/Graphics/SVG/1.1/DTD/svg11.dtd'><svg height="512px" style="enable-background:new 0 0 512 512;" version="1.1" viewBox="0 0 512 512" width="512px" xml:space="preserve" xmlns="http://www.w3.org/2000/svg" xmlns:xlink="http://www.w3.org/1999/xlink"><g id="social__x2C__media__x2C__social_media__x2C__drupal__x2C_"><polygon points="461.742,368.662 465.874,369.985 479.57,371.704 462.676,372.55 475.215,374.518    463.764,375.22 466.323,376.729 465.756,378.027 474.764,380.354 483.317,382.877 466.261,382.145 496.678,388.09 460.543,383.949    464.834,386.017 470.814,388.532 495.977,395.2 487.727,395.188 491.887,397.9 462.037,392.205 490.499,401.122 457.764,393.741    480.817,401.873 462.813,397.973 480.2,405.042 465.605,401.771 480.248,408.476 458.773,402.226 471.962,408.748 476.766,412.319    463.194,408.358 460.978,408.936 455,407.753 474.537,418.333 468.63,417.246 454.854,412.039 477.992,425.539 473.154,424.861    464.731,422.043 458.217,420.037 456.854,420.879 453.191,420.306 458.265,425.088 446.605,419.255 477.449,441.383    455.994,428.809 460.045,433.456 462.403,437.076 450.901,430.437 456.94,436.874 461.769,442.659 441.523,428.248    452.196,438.878 457.152,445.121 440.149,432.207 453.068,445.735 443.914,439.319 452.177,449.218 439.948,439.384    454.528,456.134 456.18,460.277 438.38,443.746 451.009,459.736 455.685,467.561 448.995,462.558 450.132,466.539 430.449,445.121    443.071,463.239 438.848,460.444 436.431,459.854 437.203,463.564 425.442,449.695 441.418,475.363 431.111,463.084    426.591,458.947 432.042,470.399 433.88,476.586 425.96,466.546 415.562,451.491 419.991,462.173 428.845,481.771 422.945,474.2    423.263,478.46 420.5,476.606 413.807,466.165 406.892,454.418 417.434,481.897 404.613,455.585 410.957,474.822 402.814,458.101    409.75,480.554 403.644,468.213 398.074,456.319 398.6,462.064 403.334,481.861 402.796,485.775 393.825,459.872 398.504,482.601    396.338,480.566 390.258,461.621 391.687,474.14 390.072,473.625 386.301,461.77 387.926,478.264 388.179,489.165 383.12,466.777    384.793,489.082 384.349,498.983 382.403,497.822 378.975,480.439 376.076,463.756 376.84,494.472 373.362,461.676    372.351,468.382 370.85,463.392 369.521,462.706 368.246,492.116 366.719,500.505 365.191,496.954 363.664,490.689 362.137,479.15    360.609,463.15 359.081,465.746 357.554,473.531 356.026,496.892 354.498,462.06 352.97,476.664 351.441,488.277 349.912,499.365    348.383,496.382 346.853,468.276 345.323,479.364 343.794,477.104 342.266,469.337 340.737,490.633 339.209,491.129    337.681,465.557 336.152,461.681 334.624,480.11 333.097,463.79 331.568,496.682 330.04,494.299 328.513,470.591 326.984,469.237    325.455,485.014 323.929,466.198 322.4,482.22 320.872,482.793 319.342,499.432 317.813,494.157 316.284,468.98 314.756,487.273    313.229,491.862 311.702,500.228 310.176,486.365 308.65,485.546 307.125,494.21 305.6,473.419 304.075,500.357 302.551,497.861    301.026,474.722 299.502,491.744 297.978,478.998 296.453,480.193 294.929,465.069 293.404,490.915 291.879,467.792    290.354,479.856 288.828,469.373 287.302,465.934 285.775,490.169 284.247,484.627 282.719,486.428 281.19,491.822 279.66,494.292    278.129,481.635 276.599,476.399 275.069,489.73 273.541,467.432 272.013,462.272 270.485,483.203 268.958,484.706    267.431,499.188 265.904,489.369 264.378,463.853 262.852,481.337 261.324,474.754 259.797,482.873 258.27,475.994    256.742,463.545 255.213,499.556 253.684,480.312 252.153,494.909 250.622,484.765 249.09,496.419 247.56,468.259 246.03,471.216    244.501,474.765 242.973,476.613 241.445,461.072 239.917,500.52 238.388,489.361 236.859,485.934 235.33,483.143 233.8,476.27    232.27,469.268 230.737,487.135 229.206,490.909 227.675,497.071 226.145,474.342 224.615,499.935 223.086,490.892    221.556,479.694 220.026,499.468 218.496,499.847 216.964,489.993 215.432,489.041 213.9,478.324 212.369,477.095 210.839,494.312    209.309,476.318 207.778,461.313 206.247,476.846 204.714,472.709 203.182,496.655 201.65,493.853 200.119,462.031    198.588,461.424 197.056,497.428 195.523,461.326 193.991,499.995 192.464,485.922 190.936,468.54 189.405,466.933    187.872,474.208 186.341,476.264 184.811,485.907 183.283,488.639 181.754,462.333 180.224,492.264 178.692,479.384    177.158,481.569 175.626,461.843 174.096,474.633 172.564,496.409 171.03,472.003 169.497,484.486 167.964,478.415    166.431,492.592 164.896,489.285 163.362,500.818 161.827,484.908 160.293,500.505 158.757,481.849 157.226,496.069    155.694,468.384 154.158,487.938 152.624,463.662 151.087,478.581 149.55,493.804 148.014,476.838 146.475,477.293    144.933,462.086 143.392,481.794 141.947,474.214 139.817,499.822 139.507,462.972 136.391,496.975 136.705,466.061    134.417,477.823 131.401,493.787 131.549,476.516 131.312,466.21 125.624,497.992 127.23,475.329 122.659,494.053 125.093,470.502    121.81,480.083 119.12,485.41 119.199,477.521 119.834,468.199 116.618,475.285 116.178,471.085 114.412,472.01 110.416,480.395    108.48,481.279 108.244,476.775 102.073,490.118 110.098,462.277 109.817,459.111 99.594,481.925 95.918,486.594 102.777,465.716    92.78,485.114 102.424,459.516 91.002,480.729 90.66,477.555 86.473,482.211 100.523,451.351 93.026,462.652 79.953,483.249    91.901,458.768 87.372,463.642 89,458.072 76.453,475.372 82.255,463.234 87.974,451.877 73.221,470.96 80.994,457.026    80.319,455.44 73.063,462.69 77.332,454.515 67.025,465.155 62.509,468.027 66.534,460.498 80.532,441.732 57.692,465.567    79.928,438.476 79.709,436.809 77.248,437.547 74.106,438.869 53.181,457.633 61.796,446.949 51.844,454.144 57.959,446.265    63.354,439.382 54.958,444.69 59.924,438.453 58.536,437.667 49.786,442.696 54.37,437.104 57.186,433.079 53.833,433.703    42.533,439.839 40.845,438.957 63.458,421.824 59.515,422.821 59.156,421.431 44.826,428.585 30.021,435.51 53.808,419.811    58.451,415.633 48.456,419.484 38.368,423.068 31.424,424.748 42.464,417.491 48.473,412.986 54.674,408.622 24.507,420.295    54.358,405.876 37.754,411.145 46.814,405.973 50.613,403.056 40.51,405.217 37.877,404.539 26.907,406.503 42.352,399.969    34.377,400.813 16.001,404.338 42.258,395.519 41.228,394.3 38.061,393.57 22.624,395.473 51.93,387.688 43.746,387.959    49.347,385.564 38.718,385.981 41.809,384.056 27.215,384.628 46.709,380.625 23.025,381.859 23.23,380.182 42.859,376.937    22.331,376.938 35.069,374.595 27.94,373.396 24.562,371.911 18.49,370.366 30.082,368.662 43.385,367.136 15.944,365.61    19.035,364.084 19.229,362.559 12.797,361.032 30.254,359.506 49.945,357.979 39.236,356.453 45.607,354.927 49.08,353.399    24.293,351.872 27.687,350.345 39.884,348.816 48.833,347.289 43.575,345.761 43.027,344.232 21.244,342.705 44.097,341.178    50.087,339.651 48.389,338.124 42.078,336.598 36.564,335.071 23.939,333.545 17.825,332.018 24.777,330.491 18.278,328.965    18.417,327.438 23.741,325.91 32.679,324.383 37.917,322.856 27.463,321.329 24.217,319.801 32.506,318.273 38.866,316.746    19,315.22 49.034,313.693 32.035,312.168 37.86,310.644 47.89,309.119 23.093,307.595 16.753,306.071 32.896,304.548    22.225,303.025 46.033,301.502 49.253,299.979 49.212,298.456 36.75,296.934 46.747,295.41 35.097,293.887 32.051,292.363    47.13,290.84 31.583,289.314 38.931,287.79 34.979,286.265 38.833,284.738 44.967,283.212 14.576,281.684 12.498,280.155    24.37,278.625 21.191,277.097 32.861,275.568 25.704,274.041 22.65,272.515 46.131,270.988 30.924,269.463 49.742,267.938    34.185,266.412 47.628,264.887 46.764,263.361 31.808,261.836 45.911,260.311 33.299,258.784 42.771,257.258 28.453,255.73    39.368,254.202 14.516,252.673 41.994,251.143 30.93,249.613 35.986,248.084 15.308,246.556 40.879,245.028 27.329,243.501    33.236,241.975 24.93,240.448 22.265,238.92 30.278,237.393 25.379,235.865 12.864,234.337 12.347,232.808 18.923,231.277    42.594,229.747 24.984,228.217 25.373,226.688 43.969,225.16 42.194,223.632 39.64,222.104 39.839,220.576 44.5,219.046    25.711,217.517 42.426,215.985 49.905,214.455 25.368,212.925 15.6,211.396 38.359,209.867 15.798,208.338 23.868,206.808    25.282,205.277 20.236,203.746 36.962,202.216 34.447,200.687 16.312,199.157 11.905,197.626 11.666,196.095 40.236,194.564    16.401,193.039 45.22,191.512 26.879,189.982 40.107,188.45 32.047,186.92 29.402,185.393 22.103,183.866 20.043,182.338    49.527,180.81 11.592,179.279 50.949,177.746 37.542,176.216 37.997,174.687 27.312,173.157 44.206,171.624 47.818,170.092    48.454,168.561 39.59,167.029 38.127,165.495 40.566,163.963 42.3,162.43 45.531,160.896 11.723,159.362 36.005,157.832    23.278,156.302 49.043,154.767 16.763,153.234 28.972,151.7 26.507,150.163 18.482,148.629 24.284,147.091 29.822,145.551    18.375,144.011 47.995,142.703 11.364,140.415 50.941,140.203 21.23,137.336 41.443,137.028 31.977,134.859 27.623,132.912    35.988,132.223 17.19,128.44 35.076,129.119 41.16,128.52 37.144,126.431 32.225,124.059 15.081,119.183 35.409,121.566    14.158,115.32 27.21,116.539 15.781,111.997 32.004,114.433 48.724,117.476 25.802,109.321 54.338,116.412 35.98,109.105    55.347,114.062 32.315,104.529 53.702,110.754 39.9,104.01 37.337,101.344 25.6,94.733 29.567,94.56 34.43,94.892 44.86,97.975    57.071,102.249 31.159,87.769 31.78,86.163 41.98,89.689 47.372,90.885 29.633,78.996 54.385,91.552 58.461,92.39 32.856,74.676    42.251,78.645 35.445,72.129 37.311,71.252 50.082,78.146 41.831,70.205 62.658,83.677 58.133,78.445 61.848,79.516 44.01,63.141    54.667,69.792 47.467,61.503 72.661,81.503 48.077,57.384 69.046,74.592 52.595,56.854 50.63,52.494 70.835,70.469 66.015,63.402    59.441,54.122 62.51,55.001 75.636,67.374 75.335,64.884 73.532,60.504 76.17,61.39 62.25,41.453 70.917,49.79 83.707,64.181    77.286,53.03 83.591,59.292 89.315,65.13 71.237,35.645 84.208,52.424 82.967,47.646 94.731,63.98 84.928,44.858 93.227,56.206    91.291,49.853 88.517,41.571 86.14,33.544 91.777,40.991 87.994,29.58 102.778,57.089 94.387,35.299 91.649,24.906 92.71,22.833    94.602,22.728 109.405,56.096 98.307,22.449 104.584,34.842 104.285,29.039 108.458,36.523 106.508,24.995 113.463,42.607    115.607,44.906 117.073,44.958 115.251,31.899 120.792,48.555 121.807,46.933 124.468,53.108 119.155,18.783 120.286,15.212    124.487,29.744 124.085,16.41 125.511,13.831 129.458,31.301 132.948,49.097 133.806,44.282 135.499,48.252 135.411,27.38    138.086,47.315 138.756,31.057 140.33,32.111 141.795,27.176 143.392,25.06 144.919,47.963 146.446,37.366 147.974,14.106    149.501,35.999 151.029,44.226 152.556,49.045 154.084,48.409 155.612,48.255 157.14,43.492 158.668,20.376 160.197,21.523    161.726,22.953 163.255,51.242 164.785,51.502 166.314,50.124 167.843,18.017 169.372,26.707 170.901,50.678 172.429,14.313    173.957,26.411 175.485,13.231 177.013,16.69 178.541,43.582 180.069,37.414 181.597,20.752 183.125,21.199 184.653,14.242    186.182,29.707 187.71,34.128 189.238,29.744 190.767,22.097 192.297,25.003 193.826,21.09 195.355,40.177 196.883,14.103    198.41,30.972 199.937,33.542 201.463,37.273 202.989,22.749 204.514,42.201 206.039,35.971 207.564,42.249 209.088,26.941    210.613,47.981 212.137,34.727 213.661,35.965 215.186,43.101 216.71,15.606 218.234,21.899 219.759,34.546 221.285,30.266    222.811,37.999 224.337,27.56 225.864,16.17 227.391,12.916 228.919,14.355 230.449,34.11 231.979,17.789 233.51,45.279    235.04,12.617 236.569,46.497 238.098,20.505 239.626,20.881 241.153,42.462 242.681,32.029 244.208,22.384 245.734,31.079    247.261,27.607 248.788,23.552 250.314,37.436 251.841,36.321 253.369,26.161 254.897,19.745 256.426,19.51 257.955,33.896    259.485,47.757 261.018,16.258 262.548,49.878 264.078,45.921 265.608,36.253 267.137,41.481 268.665,27.218 270.193,31.301    271.722,46.713 273.25,50.644 274.779,38.791 276.309,45.44 277.838,25.445 279.369,32.058 280.9,51.523 282.433,31.423    283.963,21.833 285.493,19.191 287.023,21.768 288.553,46.436 290.082,40.706 291.612,42.37 293.143,22.494 294.674,27.174    296.206,44.023 297.738,33.818 299.27,46.633 300.8,17.98 302.33,30.59 303.86,39.843 305.392,45.356 306.924,45.468    308.456,22.581 309.988,33.835 311.519,20.029 313.05,43.378 314.582,47.6 316.114,43.917 317.646,46.578 319.174,51.43    320.702,25.044 322.232,48.921 323.767,51.026 325.297,11.886 326.826,45.518 328.355,36.502 329.884,14.965 331.414,27.625    332.946,32.03 334.48,37.088 336.012,29.692 337.542,45.433 339.074,31.757 340.607,47.454 342.142,37.76 343.674,28.278    345.207,47.082 346.742,17.652 348.275,40.711 349.811,20.334 351.345,14.699 352.881,15.045 354.412,11.726 355.943,48.479    357.48,41.508 359.014,19.205 360.55,11.955 362.088,24.019 363.623,26.046 365.163,21.423 366.704,29.253 368.246,28.416    370.014,14.245 371.025,42.613 372.59,38.186 374.648,26.909 376.826,18.442 378.141,23.492 378.248,39.909 380.406,33.244    380.212,47.362 382.592,39.773 386.924,20.58 383.907,49.561 387.279,38.06 388.729,38.318 392.641,26.672 389.964,46.385    393.957,35.37 397.935,25.751 401.551,18.584 401.794,24.319 401.537,31.221 405.603,23.498 397.549,53.926 410.297,20.424    402.332,48.181 405.193,44.46 409.406,37.585 414.518,29.057 409.677,45.016 409.734,48.554 414.878,40.613 410.714,53.17    411.735,54.205 421.354,38.069 414.303,55.173 413.501,59.545 430.431,31.717 419.267,54.754 433.816,32.868 428.172,45.523    435.325,37.094 437.38,37.083 434.837,44.039 421.909,65.778 425.898,62.384 434.145,53.36 444.622,41.906 439.135,51.893    442.542,50.149 441.499,54.019 447.436,49.392 438.521,62.343 435.5,67.981 441.857,63.049 434.124,73.524 457.717,50.839    447.218,63.997 435.896,77.332 459.901,56.067 453.246,64.665 450.036,69.733 446.778,74.636 458.663,66.285 445.965,79.05    469.228,61.871 445.565,82.9 441.725,87.563 452.952,80.726 453.104,82.405 474.44,69.061 461.941,79.804 469.582,76.566    450.196,91.113 475.962,76.484 477.428,77.636 452.746,94.239 481.885,79.088 449.865,98.917 452.702,98.828 463.555,94.658    464.892,95.63 471.044,94.282 487.945,88.096 486.96,90.502 456,105.928 459.402,105.918 488.325,95.707 474.066,103.13    461.482,109.459 479.732,104.401 490.485,102.458 460.863,113.933 487.571,107.046 475.019,112.524 483.199,111.815    474.273,115.864 458.949,121.255 465.753,120.957 487.605,117.519 467.439,123.389 491.522,120.164 491.821,121.85    497.142,122.711 467.911,128.913 488.771,127.451 492.03,128.734 484.14,131.3 471.387,134.108 481.252,134.728 488.731,135.771    480.403,137.875 480.454,139.409 482.987,140.875 476.212,142.538 473.24,144.011 492.238,145.537 473.974,147.063    488.614,148.589 474.746,150.115 489.632,151.641 486.794,153.167 477.517,154.693 467.934,156.22 471.781,157.747    467.334,159.273 484.578,160.8 470.348,162.328 460.866,163.856 481.716,165.384 496.397,166.913 496.814,168.44 481.247,169.968    500.052,171.495 467.041,173.021 462.101,174.548 487.02,176.075 488.368,177.602 494.719,179.128 484.906,180.655    474.352,182.182 479.97,183.708 478.823,185.235 474.428,186.762 474.825,188.29 477.524,189.816 483.647,191.343 460.753,192.872    466.047,194.4 497.083,195.927 494.956,197.454 470.345,198.979 495.774,200.505 485.316,202.03 475.713,203.554 487.826,205.078    495.804,206.602 461.195,208.125 487.211,209.648 465.376,211.171 481.884,212.694 493.386,214.217 461.818,215.74    480.928,217.263 495.886,218.786 464.579,220.31 473.638,221.833 486.459,223.358 466.488,224.883 474.046,226.408    493.291,227.935 467.603,229.461 464.639,230.989 469.627,232.518 473.094,234.047 495.845,235.576 490.017,237.104    480.435,238.631 468.895,240.158 494.538,241.685 464.77,243.21 481.508,244.735 484.769,246.261 480.007,247.786 490.77,249.312    461.669,250.837 466.879,252.363 498.973,253.889 486.625,255.416 485.831,256.943 492.721,258.471 463.554,260 460.711,261.53    483.007,263.06 461.999,264.589 465.106,266.117 496.476,267.645 471.288,269.172 495.411,270.698 488.128,272.226 466.24,273.752    470.999,275.279 467.55,276.808 465.5,278.336 469.795,279.865 497.326,281.396 480.228,282.927 476.312,284.456 493.978,285.984    483.645,287.513 462.399,289.041 467.49,290.569 489.544,292.098 486.791,293.627 463.022,295.156 500.541,296.688    481.541,298.218 465.551,299.748 463.017,301.276 464.582,302.806 469.448,304.335 463.589,305.864 472.641,307.396    496.999,308.927 493.336,310.457 488.089,311.986 500.504,313.517 492.873,315.047 462.282,316.578 475.343,318.109    480.452,319.634 464.538,321.161 481.325,322.69 474.547,324.223 462.627,325.753 492.441,327.28 473.15,328.808 481.047,330.335    474.881,331.863 468.575,333.395 470.821,334.927 490.289,336.457 480.854,337.986 493.765,339.517 497.765,341.049    483.723,342.581 480.939,344.112 489.999,345.644 491.263,347.178 477.909,348.71 462.377,350.243 489.123,351.776    465.729,353.311 468.077,354.841 484.756,356.371 479.08,357.906 491.991,359.438 477.392,360.974 487.145,362.51 469.003,364.044    488.827,365.582 477.853,349.846  " style="fill:#0093D1;"/><path d="M316.018,167.871c-14.254-8.885-27.702-12.323-41.142-21.228   c-8.335-5.631-19.907-19.125-29.633-30.717c-1.784,18.686-7.392,26.292-13.814,31.741c-13.623,10.86-22.195,14.133-33.988,20.697   c-9.898,5.193-63.683,37.866-63.4,107.688c0.284,69.826,58.708,120.984,123.333,120.71c64.662-0.256,120.533-47.849,120.24-119.559   C377.323,205.5,324.617,173.247,316.018,167.871L316.018,167.871z M317.92,369.21c-1.345,1.354-13.649,10.075-28.122,11.501   c-14.474,1.39-34.061,2.285-45.899-8.484c-1.875-1.901-1.372-4.571-0.018-5.668c1.326-1.097,2.397-1.92,4.016-1.938   c1.62,0,1.327,0,2.15,0.548c5.379,4.314,13.431,7.771,30.583,7.698c17.183-0.055,29.248-4.955,34.582-9.069   c2.406-1.883,3.486-0.273,3.771,0.823C319.237,365.699,319.796,367.327,317.92,369.21L317.92,369.21z M271.336,346.629   c2.945-2.724,7.776-7.075,12.322-8.977c4.557-1.92,6.944-1.664,11.254-1.683c4.28-0.019,8.873,0.238,12.084,2.396   c3.212,2.157,5.124,7.021,6.186,9.69c1.098,2.725,0.018,4.333-2.104,5.448c-1.866,1.079-2.141,0.549-4.035-2.962   c-1.875-3.511-3.504-7.039-12.899-6.984c-9.377,0.037-12.322,3.31-16.87,7.112c-4.538,3.803-6.156,5.156-7.775,2.998   C267.887,351.529,268.408,349.354,271.336,346.629L271.336,346.629z M367.944,294.648c0.037,8.374-2.58,23.549-8.993,33.039   c-6.376,9.507-10.383,13.055-17.921,12.543c-9.671-0.787-29.093-31.01-41.426-31.522c-15.543-0.457-49.22,32.984-75.778,33.094   c-16.102,0.055-20.923-2.358-26.303-5.869c-8.087-5.649-12.14-14.279-11.93-26.2c0.201-21.118,19.679-40.92,44.371-41.285   c31.362-0.421,53.245,31.137,69.053,30.827c13.421-0.312,39.074-26.969,51.682-27.023   C364.104,272.195,367.908,286.237,367.944,294.648L367.944,294.648z" id="Drupal_1_" style="fill:#FFFFFF;"/></g><g id="Layer_1"/></svg>
